<svg width="1006" height="1000" viewBox="0 0 1006 1000" fill="none" xmlns="http://www.w3.org/2000/svg">
<path d="M94.2819 503.729C94.2981 599.368 127.739 691.984 188.802 765.511C249.866 839.038 334.7 888.836 428.588 906.266C434.681 907.382 440.496 909.69 445.699 913.057C450.902 916.424 455.392 920.785 458.912 925.89C462.433 930.995 464.915 936.745 466.217 942.811C467.519 948.877 467.616 955.14 466.501 961.243C465.387 967.346 463.083 973.17 459.721 978.382C456.359 983.593 452.005 988.09 446.909 991.616C441.812 995.143 436.071 997.629 430.015 998.933C423.958 1000.24 417.705 1000.33 411.611 999.217C288.239 976.386 177.839 908.201 102.075 808.041C26.3115 707.882 -9.34663 582.979 2.09835 457.842C13.5433 332.706 71.2652 216.371 163.937 131.666C256.609 46.9603 377.54 4.45324e-05 503 3.90483e-05C628.46 3.35643e-05 749.391 46.9603 842.063 131.666C934.735 216.371 992.457 332.706 1003.9 457.842C1015.35 582.979 979.689 707.881 903.925 808.041C828.161 908.201 717.761 976.386 594.389 999.217C582.082 1001.49 569.379 998.771 559.073 991.661C548.768 984.551 541.704 973.632 539.436 961.306C537.168 948.98 539.882 936.256 546.98 925.934C554.079 915.612 564.98 908.537 577.287 906.266C674.659 887.973 762.086 834.887 823.314 756.878C884.541 678.869 915.403 581.244 910.162 482.155C904.92 383.066 863.931 289.255 794.816 218.162C725.701 147.07 633.163 103.535 534.406 95.6499L534.406 193.576C590.55 199.139 644.129 219.882 689.412 253.589C734.695 287.295 769.979 332.696 791.49 384.935C813.001 437.175 819.93 494.289 811.536 550.168C803.142 606.048 779.741 658.591 743.835 702.178C707.929 745.766 660.869 778.758 607.689 797.626C554.509 816.494 497.208 820.528 441.915 809.298C386.622 798.067 335.417 771.994 293.776 733.867C252.135 695.739 221.624 646.992 205.508 592.839C202.172 581.632 203.419 569.557 208.973 559.27C214.526 548.983 223.932 541.328 235.122 537.987C246.311 534.647 258.367 535.895 268.637 541.458C278.907 547.02 286.551 556.441 289.886 567.649C300.504 603.241 319.791 635.632 346.011 661.905C372.231 688.178 404.562 707.509 440.094 718.159L440.094 644.667C419.133 635.282 400.532 621.323 385.652 603.811C370.771 586.299 359.986 565.677 354.087 543.453C348.188 521.229 347.324 497.965 351.557 475.363C355.79 452.761 365.014 431.393 378.554 412.822C392.094 394.25 409.608 378.945 429.814 368.025C450.02 357.106 472.407 350.849 495.339 349.711C518.27 348.573 541.165 352.584 562.35 361.45C583.534 370.316 602.472 383.813 617.778 400.953C625.161 409.721 628.841 421.024 628.039 432.465C627.236 443.906 622.012 454.583 613.478 462.23C604.943 469.877 593.77 473.891 582.328 473.42C570.887 472.949 560.079 468.031 552.2 459.709C543.286 449.728 531.557 442.692 518.563 439.533C505.57 436.375 491.926 437.242 479.435 442.021C466.945 446.799 456.198 455.264 448.616 466.294C441.033 477.324 436.974 490.4 436.974 503.792C436.974 517.184 441.033 530.26 448.616 541.29C456.198 552.32 466.945 560.784 479.435 565.563C491.926 570.341 505.57 571.209 518.563 568.05C531.557 564.892 543.286 557.856 552.2 547.874C559.987 539.164 570.91 533.909 582.566 533.266C594.222 532.622 605.655 536.642 614.351 544.442C623.048 552.242 628.294 563.183 628.937 574.857C629.58 586.531 625.566 597.983 617.778 606.693C595.829 631.236 566.613 648.096 534.406 654.806L534.406 725.212C574.113 719.692 611.602 703.562 642.936 678.519C674.27 653.475 698.292 620.442 712.478 582.888C726.665 545.335 730.492 504.649 723.557 465.103C716.623 425.556 699.183 388.611 673.07 358.146C646.958 327.682 613.135 304.824 575.157 291.973C537.178 279.121 496.445 276.752 457.236 285.113C418.027 293.474 381.791 312.257 352.332 339.489C322.874 366.721 301.281 401.396 289.823 439.872C286.227 450.757 278.539 459.811 268.389 465.113C258.24 470.414 246.427 471.547 235.457 468.269C224.488 464.992 215.225 457.563 209.633 447.559C204.042 437.554 202.562 425.761 205.508 414.682C221.57 360.857 251.835 312.369 293.11 274.331C334.385 236.292 385.143 210.113 440.031 198.551L440.031 99.1765C343.7 114.228 255.913 163.27 192.512 237.454C129.111 311.638 94.2717 406.077 94.2819 503.729Z" fill="#361810"/>
</svg>
