<svg width="1253" height="1253" viewBox="0 0 1253 1253" fill="none" xmlns="http://www.w3.org/2000/svg">
<rect width="1253" height="1253" rx="600" fill="black"/>
<path d="M309.008 629.886C309.02 703.911 334.915 775.596 382.2 832.505C429.485 889.415 495.176 927.959 567.878 941.45C572.597 942.314 577.099 944.1 581.128 946.706C585.158 949.312 588.634 952.687 591.361 956.639C594.087 960.59 596.009 965.04 597.017 969.735C598.025 974.43 598.1 979.278 597.237 984.002C596.374 988.726 594.59 993.234 591.987 997.267C589.383 1001.3 586.012 1004.78 582.065 1007.51C578.118 1010.24 573.673 1012.16 568.984 1013.17C564.294 1014.18 559.451 1014.26 554.733 1013.39C459.199 995.723 373.711 942.948 315.043 865.424C256.374 787.9 228.762 691.225 237.625 594.37C246.487 497.515 291.184 407.471 362.945 341.909C434.706 276.347 528.349 240 625.5 240C722.65 240 816.294 276.347 888.055 341.909C959.816 407.471 1004.51 497.515 1013.38 594.37C1022.24 691.225 994.626 787.9 935.957 865.424C877.289 942.948 791.801 995.723 696.267 1013.39C686.738 1015.15 676.901 1013.05 668.92 1007.55C660.94 1002.04 655.47 993.591 653.714 984.051C651.958 974.511 654.06 964.663 659.556 956.673C665.053 948.684 673.495 943.208 683.024 941.45C758.425 927.291 826.124 886.203 873.536 825.824C920.948 765.444 944.846 689.883 940.787 613.188C936.728 536.493 904.988 463.883 851.469 408.858C797.95 353.832 726.292 320.136 649.819 314.033L649.819 389.828C693.295 394.133 734.784 410.189 769.849 436.278C804.914 462.366 832.236 497.506 848.893 537.94C865.55 578.374 870.916 622.58 864.416 665.83C857.916 709.081 839.795 749.749 811.991 783.486C784.188 817.223 747.747 842.758 706.566 857.362C665.386 871.966 621.015 875.089 578.198 866.396C535.382 857.704 495.731 837.523 463.486 808.013C431.242 778.502 407.616 740.772 395.136 698.857C392.553 690.183 393.518 680.837 397.819 672.875C402.119 664.913 409.403 658.988 418.067 656.402C426.732 653.817 436.067 654.783 444.02 659.088C451.973 663.394 457.892 670.686 460.474 679.36C468.696 706.909 483.631 731.979 503.935 752.314C524.239 772.65 549.274 787.612 576.788 795.855L576.788 738.972C560.557 731.709 546.154 720.904 534.631 707.35C523.108 693.796 514.757 677.834 510.189 660.633C505.621 643.431 504.952 625.425 508.23 607.931C511.508 590.437 518.65 573.898 529.135 559.524C539.62 545.15 553.181 533.303 568.828 524.852C584.475 516.4 601.81 511.557 619.567 510.676C637.324 509.796 655.053 512.9 671.458 519.762C687.862 526.625 702.527 537.071 714.379 550.338C720.096 557.124 722.946 565.873 722.324 574.728C721.702 583.584 717.658 591.848 711.049 597.766C704.44 603.685 695.788 606.791 686.928 606.427C678.069 606.063 669.7 602.256 663.598 595.815C656.696 588.089 647.613 582.644 637.551 580.199C627.49 577.754 616.925 578.425 607.253 582.124C597.581 585.823 589.258 592.374 583.387 600.911C577.516 609.449 574.372 619.57 574.372 629.935C574.372 640.3 577.516 650.421 583.387 658.958C589.258 667.496 597.581 674.047 607.253 677.746C616.925 681.444 627.49 682.116 637.551 679.671C647.613 677.226 656.696 671.781 663.598 664.055C669.628 657.313 678.086 653.246 687.112 652.748C696.138 652.249 704.991 655.361 711.725 661.398C718.459 667.435 722.522 675.903 723.02 684.939C723.517 693.975 720.409 702.839 714.379 709.581C697.383 728.576 674.759 741.626 649.819 746.82L649.819 801.314C680.566 797.041 709.597 784.557 733.86 765.174C758.124 745.79 776.725 720.222 787.71 691.156C798.695 662.09 801.659 630.598 796.289 599.989C790.92 569.381 777.415 540.785 757.195 517.205C736.974 493.626 710.784 475.934 681.375 465.987C651.966 456.04 620.424 454.206 590.063 460.678C559.701 467.149 531.641 481.687 508.83 502.764C486.019 523.842 469.298 550.68 460.425 580.461C457.641 588.886 451.688 595.894 443.828 599.997C435.969 604.101 426.822 604.977 418.327 602.44C409.833 599.904 402.66 594.154 398.33 586.41C394 578.667 392.855 569.539 395.136 560.964C407.574 519.303 431.009 481.774 462.971 452.332C494.933 422.89 534.237 402.627 576.74 393.679L576.74 316.763C502.145 328.412 434.167 366.371 385.072 423.79C335.977 481.208 309 554.304 309.008 629.886Z" fill="white"/>
</svg>
